<?xml version="1.0" encoding="UTF-8"?>
<svg width="95px" height="36px" viewBox="0 0 95 36" version="1.1" xmlns="http://www.w3.org/2000/svg" xmlns:xlink="http://www.w3.org/1999/xlink">
    <!-- Generator: Sketch 47.1 (45422) - http://www.bohemiancoding.com/sketch -->
    <title>logo_header @1x</title>
    <desc>Created with Sketch.</desc>
    <defs></defs>
    <g id="Symbols" stroke="none" stroke-width="1" fill="none" fill-rule="evenodd">
        <g id="Header_01" transform="translate(-40.000000, -27.000000)">
            <g id="Header">
                <g id="Group-3">
                    <g id="NAV">
                        <g id="logo_header-" transform="translate(40.000000, 27.000000)">
                            <path d="M42.5339988,16.9405642 C42.5339988,15.9660026 42.7097019,15.6180674 41.6084995,15.0378538 L40.8471195,14.666873 L40.8471195,13.9940482 L48.4385096,13.9940482 L48.4385096,14.666873 L47.6652212,14.9686098 C46.5171429,15.4325234 46.5171429,15.5600782 46.5405267,16.9405642 L46.5522186,22.4965941 L46.2709638,22.7632801 C44.947399,23.0997461 41.8544621,23.9348549 39.0661638,23.9348549 C32.6697278,23.9348549 29.5184397,20.6521946 29.5184397,13.5533946 C29.5184397,5.92068665 33.9702336,2.61487347 39.8159601,2.61487347 C41.3858123,2.61487347 44.2326783,2.61487347 46.2123961,4.27362186 C46.8685491,4.81889184 46.9271168,5.43362025 46.9271168,5.67726064 C46.9271168,6.14117424 46.8333652,6.23399984 46.7397218,6.41943665 L45.3222972,9.14557221 L44.7949714,9.14557221 C44.7949714,7.79992263 43.2135356,4.21573985 39.101456,4.21573985 C34.3333316,4.21573985 34.0990609,7.50986944 34.0990609,13.0776902 C34.0990609,17.9496406 34.6143699,22.3340957 40.3081019,22.3340957 C42.1473005,22.3340957 42.4870148,21.3715393 42.5339988,20.2926829 L42.5339988,16.9405642" id="Fill-2" fill="#183D7B"></path>
                            <path d="M50.3361676,22.8559985 L51.6953494,22.3108358 C52.8081354,21.8816514 52.8081354,21.0813789 52.8081354,19.3066522 L52.8081354,6.51236944 C52.8081354,5.52633865 52.5270972,5.03916505 51.7539171,4.51726225 L50.5118707,3.69372985 L50.5118707,3.02090506 L56.1472515,3.02090506 L56.4867492,3.22970906 C57.10761,4.05334865 58.3963157,6.26872905 60.1301791,8.58872582 L66.1048411,16.6388274 C66.3510203,16.975079 66.4797393,17.126001 66.5968746,17.126001 C66.8429455,17.126001 66.8429455,16.8243714 66.8429455,16.2676322 L66.8429455,6.53552224 C66.8429455,5.13199065 66.8195618,4.85362105 65.6128076,4.36655464 L63.8438685,3.69372985 L63.8438685,3.02090506 L70.9314249,3.02090506 L70.9314249,3.69372985 L70.0294175,4.02998146 C68.7057445,4.55209865 68.4480899,4.85362105 68.4480899,6.87198823 L68.4480899,18.9356713 C68.4480899,20.7798565 68.4831656,22.6473017 68.4831656,23.2851829 L68.2723869,23.5289305 L66.5385235,23.5289305 L66.198701,23.2851829 C65.9175544,22.9489313 64.31241,20.7101838 62.6722982,18.5410018 L55.4323143,8.95992102 C55.0339241,8.43780384 54.8466374,8.15954142 54.6942099,8.15954142 C54.4131716,8.15954142 54.4131716,8.47264023 54.4131716,8.90182463 L54.4131716,19.851815 C54.4131716,21.324805 54.4131716,21.7889329 55.7135691,22.2181173 L57.5410759,22.8559985 L57.5410759,23.5289305 L50.3361676,23.5289305 L50.3361676,22.8559985" id="Fill-3" fill="#183D7B"></path>
                            <path d="M72.7474563,22.8559985 L74.1064215,22.4037685 C75.1257807,22.0674097 75.1606399,21.5106705 75.1606399,19.5851289 L75.1606399,6.35008543 C75.1606399,4.88845745 75.1606399,4.51726225 74.1064215,4.18101064 L72.7474563,3.69372985 L72.7474563,3.02090506 L82.9982091,3.02090506 C86.5831795,3.02090506 90.0975656,3.78655545 90.0975656,8.43780384 C90.0975656,12.6949186 86.8879264,15.3281214 81.8735146,15.3281214 C81.6625194,15.3281214 81.3816976,15.2933922 81.1941944,15.2933922 L80.7372365,14.1912758 L80.9831991,13.9475282 C83.2326964,13.8897534 85.9622105,12.9732882 85.5757287,8.66997502 C85.2709818,5.31753466 84.2866982,4.69122985 81.5105248,4.69122985 C79.6242339,4.69122985 79.4952984,4.96959945 79.4952984,5.73524984 L79.4952984,19.5851289 C79.4952984,21.6382253 79.460331,22.0674097 80.7019443,22.4037685 L82.3069805,22.8559985 L82.3069805,23.5289305 L72.7474563,23.5289305 L72.7474563,22.8559985" id="Fill-4" fill="#183D7B"></path>
                            <polygon id="Fill-5" fill="#183D7B" points="29.5184397 26.7834309 94.6721243 26.7834309 94.6721243 26.2781117 29.5184397 26.2781117"></polygon>
                            <path d="M16.7957191,13.170623 C16.7957191,15.0611138 15.2491424,16.5924146 13.327884,16.5924146 C11.4184258,16.5924146 9.87195737,15.0611138 9.87195737,13.170623 C9.87195737,11.2797034 11.4184258,9.74861702 13.327884,9.74861702 C15.2491424,9.74861702 16.7957191,11.2797034 16.7957191,13.170623" id="Fill-6" fill="#FF6F20"></path>
                            <path d="M7.57580087,7.45188024 L0.101546195,7.45188024 L1.61261421,12.0336702 L5.33810379,12.0336702 L5.33810379,12.022201 C9.11046917,12.022201 12.1680056,8.99475741 12.179914,5.24796905 L12.179914,1.57096067 L7.57580087,0.0746034816 L7.57580087,7.45188024" id="Fill-7" fill="#FF6F20"></path>
                            <path d="M7.55241709,18.8774678 L7.55241709,26.2664281 L12.179914,24.7816473 L12.179914,21.0930625 L12.1680056,21.0930625 C12.1680056,17.3579578 9.11046917,14.3305142 5.3264119,14.3187234 L1.61261421,14.3187234 L0.101546195,18.8774678 L7.55241709,18.8774678" id="Fill-8" fill="#FF6F20"></path>
                            <path d="M19.0917673,18.8891514 L26.5661303,18.8891514 L25.0430456,14.3187234 L21.3176643,14.3187234 C17.5454071,14.3305142 14.4877624,17.3579578 14.4877624,21.0930625 L14.4877624,24.7701781 L19.0917673,26.2664281 L19.0917673,18.8891514" id="Fill-9" fill="#FF6F20"></path>
                            <path d="M19.1035675,7.47514023 L19.1035675,0.0862870729 L14.4877624,1.57096067 L14.4877624,5.25954545 C14.4994543,8.99475741 17.5572073,12.022201 21.3294644,12.0336702 L25.0430456,12.0336702 L26.5661303,7.47514023 L19.1035675,7.47514023" id="Fill-10" fill="#FF6F20"></path>
                            <path d="M92.9681401,3.75171905 L92.9681401,4.02998146 L92.6633933,4.02998146 L92.6633933,4.58682785 L92.9681401,4.58682785 L92.9681401,4.99275226 L92.8858639,4.86519745 L92.6633933,4.86519745 L92.6633933,5.70041344 L92.300187,5.70041344 L92.300187,3.75171905 L92.9681401,3.75171905 Z M92.9681401,6.11802144 C92.2418358,6.11802144 91.6559424,5.53802224 91.6559424,4.73764265 C91.6559424,3.92568665 92.2418358,3.35726386 92.9681401,3.35726386 L92.9681401,3.02090506 C92.0073486,3.02090506 91.2340602,3.78655545 91.2340602,4.73764265 C91.2340602,5.67726064 92.0073486,6.44269665 92.9681401,6.44269665 L92.9681401,6.11802144 Z M92.9681401,4.99275226 L92.9681401,4.58682785 L92.9797238,4.58682785 C93.2021944,4.58682785 93.3778974,4.55209865 93.3778974,4.29698904 C93.3778974,4.06492505 93.1671187,4.02998146 92.9911991,4.02998146 L92.9681401,4.02998146 L92.9681401,3.75171905 L93.0264913,3.75171905 C93.4950328,3.75171905 93.7527956,3.91400306 93.7527956,4.32003466 C93.7527956,4.65639346 93.553817,4.81889184 93.23727,4.84215184 L93.7645957,5.70041344 L93.3896976,5.70041344 L92.9681401,4.99275226 Z M92.9681401,3.35726386 C93.682536,3.35726386 94.2682129,3.92568665 94.2682129,4.73764265 C94.2682129,5.53802224 93.682536,6.11802144 92.9681401,6.11802144 L92.9681401,6.44269665 C93.9168068,6.44269665 94.6900951,5.67726064 94.6900951,4.73764265 C94.6900951,3.78655545 93.9168068,3.02090506 92.9681401,3.02090506 L92.9681401,3.35726386 L92.9681401,3.35726386 Z" id="Fill-11" fill="#183D7B"></path>
                            <path d="M31.0893745,35.3643013 C30.357116,35.3643013 29.9035142,35.1592489 29.7363635,35.0647083 C29.5851268,34.8912766 29.481632,34.3239257 29.481632,33.7879811 C29.5373849,33.6856157 29.7203413,33.6776838 29.7841054,33.7643996 C29.9432449,34.2766554 30.4765248,35.0016812 31.1531386,35.0016812 C31.7420633,35.0016812 32.0126005,34.5997228 32.0126005,34.2056963 C32.0126005,33.5676007 31.4077619,33.1891167 30.930235,32.9527652 C30.357116,32.6690361 29.7283524,32.196333 29.7283524,31.4158906 C29.7203413,30.5254723 30.4208801,29.9108511 31.5749126,29.9108511 C31.8376552,29.9108511 32.1639455,29.9422574 32.4822246,30.036798 C32.5857194,30.0684188 32.6573864,30.0841755 32.7528701,30.0998251 C32.8166342,30.273364 32.8960957,30.6987967 32.8960957,31.2268093 C32.8563649,31.3214571 32.6573864,31.3293891 32.5857194,31.2507124 C32.4505049,30.8485397 32.1081925,30.273364 31.5351818,30.273364 C31.0096965,30.273364 30.7232453,30.6121881 30.7232453,31.0063217 C30.7232453,31.3687274 31.0496438,31.6997268 31.4474927,31.9044576 L31.9728697,32.1803619 C32.4663106,32.4404022 33.0951825,32.8974557 33.0951825,33.7643996 C33.0951825,34.7339233 32.2912571,35.3643013 31.0893745,35.3643013" id="Fill-12" fill="#183D7B"></path>
                            <path d="M39.589917,32.0858212 C39.589917,32.3066304 39.5978198,32.3221728 39.8128206,32.3221728 L40.3620145,32.3221728 C40.7758856,32.3221728 40.8713693,32.2672921 40.9509391,31.888808 L40.9907781,31.6917948 C41.0464229,31.6289821 41.2455097,31.6289821 41.2852405,31.6997268 C41.2693265,31.9520495 41.2614237,32.2356713 41.2614237,32.53505 C41.2614237,32.834643 41.2693265,33.1182648 41.2852405,33.3703731 C41.2455097,33.4413322 41.0464229,33.4492642 40.9907781,33.3780907 L40.9509391,33.1812919 C40.8713693,32.8030222 40.7758856,32.7399952 40.3620145,32.7399952 L39.8128206,32.7399952 C39.5978198,32.7399952 39.589917,32.7477128 39.589917,32.9842787 L39.589917,33.9219673 C39.589917,34.2845874 39.6217449,34.5369101 39.7172286,34.6706818 C39.8207235,34.8125999 39.9720684,34.875627 40.5530902,34.875627 C41.2455097,34.875627 41.516047,34.8519383 41.9538431,33.9616272 C42.017499,33.874697 42.2163693,33.9063177 42.2483054,34.0009655 C42.2163693,34.4106415 42.0255101,35.0489515 41.9140041,35.2618287 C41.4922301,35.2459647 40.7281437,35.2380327 40.075455,35.2380327 L39.0407231,35.2380327 C38.6586799,35.2380327 38.2686256,35.2459647 37.6716899,35.2618287 C37.6081423,35.2145583 37.6081423,35.0254771 37.6716899,34.9859244 L38.0458302,34.9309365 C38.4039484,34.875627 38.4517985,34.8285711 38.4517985,34.1033309 L38.4517985,31.1637822 C38.4517985,30.4467956 38.4039484,30.3994181 38.0458302,30.3284591 L37.8468516,30.2889064 C37.7751847,30.2418504 37.7831958,30.0604868 37.8627656,30.0132165 C38.2367977,30.0290804 38.6269603,30.036798 39.0088952,30.036798 L40.6963158,30.036798 C41.2056707,30.036798 41.6593808,30.0290804 41.7628757,30.0132165 C41.7706702,30.1391634 41.8265315,30.7067287 41.8662622,31.2347413 C41.8343261,31.3214571 41.6513697,31.3371067 41.5717999,31.2661476 C41.484219,30.9904578 41.3728213,30.7541062 41.2693265,30.6438088 C41.1180898,30.4938515 40.8792722,30.3994181 40.4894344,30.3994181 L39.8526596,30.3994181 C39.589917,30.3994181 39.589917,30.4151749 39.589917,30.7067287 L39.589917,32.0858212" id="Fill-13" fill="#183D7B"></path>
                            <path d="M51.7595465,34.3476144 C51.7595465,34.6786138 51.7754604,34.8362887 51.9265889,34.8679094 C51.9585251,34.8993158 51.950514,35.0333019 51.9027721,35.0568835 C51.7676658,35.0805722 51.5605679,35.104261 51.3457836,35.17522 C51.067127,35.2618287 50.3827186,35.3643013 49.9369114,35.3643013 C49.3956203,35.3643013 48.9341156,35.3089918 48.3688995,35.0882898 C47.4374459,34.7179521 46.8008877,33.8432906 46.8008877,32.7085888 C46.8008877,31.7234155 47.2465867,30.8564716 48.2016406,30.3284591 C48.7429316,30.036798 49.3876092,29.9108511 50.064223,29.9108511 C50.94761,29.9108511 51.3855144,30.0998251 51.6401377,30.0998251 C51.6639545,30.3361767 51.6720739,30.8880924 51.7515354,31.3687274 C51.7195992,31.4554433 51.5048149,31.4633752 51.4491702,31.3846986 C51.1944387,30.6438088 50.6930949,30.273364 49.9528253,30.273364 C48.6872869,30.273364 48.074329,31.3135251 48.074329,32.5587387 C48.074329,33.6856157 48.4644915,34.355332 48.981641,34.7023025 C49.3636842,34.9543037 49.7777718,35.0016812 50.0722341,35.0016812 C50.525836,35.0016812 50.621428,34.9149653 50.621428,34.4027095 L50.621428,33.9063177 C50.621428,33.4806705 50.5735779,33.4334002 50.1915347,33.3780907 L49.8414276,33.3310348 C49.7538467,33.2836573 49.7538467,33.1026152 49.8414276,33.0551306 C50.4065354,33.0709945 50.7964815,33.0789265 51.1865358,33.0789265 C51.5686873,33.0789265 51.9585251,33.0709945 52.2289541,33.0551306 C52.2928264,33.1026152 52.2928264,33.2836573 52.2289541,33.3310348 L52.046106,33.3626555 C51.8073966,33.4019939 51.7595465,33.4806705 51.7595465,33.9063177 L51.7595465,34.3476144" id="Fill-14" fill="#183D7B"></path>
                            <path d="M57.4106247,31.1717142 C57.4106247,30.4387564 57.3627746,30.3914861 57.0046565,30.3205271 L56.8056779,30.2811887 C56.7420221,30.2340256 56.7341192,30.0604868 56.8214836,30.0132165 C57.2035268,30.0290804 57.601484,30.036798 57.9835272,30.036798 C58.3736897,30.036798 58.7636358,30.0290804 59.145679,30.0132165 C59.2093348,30.0604868 59.2093348,30.2340256 59.145679,30.2811887 L58.9547115,30.3128095 C58.5965934,30.3758366 58.5487432,30.4387564 58.5487432,31.1717142 L58.5487432,32.9921035 C58.5487432,33.9140353 58.6521298,34.9309365 59.8620235,34.9309365 C60.8809497,34.9309365 61.1911095,34.0482358 61.1911095,32.9686291 L61.1911095,32.0148622 C61.1911095,31.3766594 61.1593898,30.7775806 61.0719172,30.5727426 C61.0002503,30.4073501 60.8251968,30.3600798 60.6100877,30.3205271 L60.3953034,30.2811887 C60.3316476,30.2181617 60.3476698,30.0604868 60.3953034,30.0132165 C60.8251968,30.0290804 61.135573,30.036798 61.461755,30.036798 C61.7565421,30.036798 62.0508961,30.0290804 62.3534778,30.0132165 C62.4010032,30.0604868 62.4169171,30.2181617 62.3534778,30.2811887 L62.2099274,30.3128095 C62.003046,30.3600798 61.8519176,30.4073501 61.7802506,30.5727426 C61.6926697,30.7775806 61.6609501,31.3766594 61.6609501,32.0148622 L61.6609501,32.8974557 C61.6609501,33.6383454 61.5892832,34.3159937 61.1513787,34.7969504 C60.8012717,35.167288 60.2202499,35.3643013 59.5755723,35.3643013 C58.9706255,35.3643013 58.4293344,35.2696534 57.9996576,34.9228973 C57.5856783,34.5841804 57.4106247,34.0009655 57.4106247,33.1417392 L57.4106247,31.1717142" id="Fill-15" fill="#183D7B"></path>
                            <path d="M68.6491254,32.314348 C68.6491254,32.5903594 68.6730505,32.613941 69.1426746,32.613941 C69.4291258,32.613941 69.5961682,32.5429819 69.7476214,32.3931319 C69.8827277,32.2591457 70.0340726,32.0070374 70.0340726,31.5420519 C70.0340726,30.8327829 69.6120821,30.3758366 68.9912213,30.3758366 C68.6650394,30.3758366 68.6491254,30.3994181 68.6491254,30.7775806 L68.6491254,32.314348 Z M67.5587488,31.3135251 C67.5587488,30.5254723 67.5426183,30.4387564 67.208317,30.3914861 L66.9935327,30.3600798 C66.9138547,30.3205271 66.9138547,30.1237282 67.0094467,30.0841755 C67.6062741,30.0446228 68.2271349,30.0132165 68.9834268,30.0132165 C69.659824,30.0132165 70.2408458,30.1157963 70.5434275,30.2970527 C71.0050405,30.5648106 71.2439663,30.9590514 71.2439663,31.4633752 C71.2439663,32.1647123 70.7663311,32.4643053 70.4000936,32.6453474 C70.3205238,32.6847929 70.3205238,32.7320632 70.3603629,32.818779 C70.8857399,33.874697 71.2120301,34.4657366 71.5938568,34.7889112 C71.8008465,34.9543037 72.0078362,35.0016812 72.1273533,35.0096132 C72.1988037,35.0489515 72.1988037,35.167288 72.1592894,35.2145583 C72.0317613,35.2696534 71.7772462,35.2855174 71.5304175,35.2855174 C70.7980508,35.2855174 70.3364378,35.0254771 69.9861142,34.4579118 C69.7314909,34.0403038 69.5484263,33.653995 69.36547,33.236387 C69.269878,33.0237242 69.1426746,32.9606971 68.943696,32.9606971 C68.6650394,32.9606971 68.6491254,32.9763467 68.6491254,33.1338072 L68.6491254,34.1033309 C68.6491254,34.8285711 68.6968673,34.8833446 69.0548772,34.9465861 L69.269878,34.9859244 C69.3257392,35.0254771 69.3257392,35.2145583 69.269878,35.2618287 C68.8478875,35.2459647 68.4818665,35.2380327 68.0998233,35.2380327 C67.7018661,35.2380327 67.3517591,35.2459647 66.937888,35.2618287 C66.8742322,35.2145583 66.8742322,35.0254771 66.937888,34.9859244 L67.1527805,34.9465861 C67.5108987,34.8833446 67.5587488,34.8285711 67.5587488,34.1033309 L67.5587488,31.3135251 L67.5587488,31.3135251 Z" id="Fill-16" fill="#183D7B"></path>
                            <path d="M79.0119255,30.273364 C78.0329466,30.273364 77.5076777,31.1797534 77.5076777,32.4957116 C77.5076777,33.4573034 77.8499902,35.0016812 79.1472483,35.0016812 C80.1899913,35.0016812 80.5958513,33.9930335 80.5958513,32.7163064 C80.5958513,31.3687274 79.9989155,30.273364 79.0119255,30.273364 Z M81.8692925,32.613941 C81.8692925,34.3319649 80.707249,35.3643013 78.9960115,35.3643013 C77.3962801,35.3643013 76.2341282,34.3239257 76.2341282,32.6769681 C76.2341282,31.1165119 77.4120858,29.9108511 79.0757978,29.9108511 C80.731174,29.9108511 81.8692925,31.0141465 81.8692925,32.613941 L81.8692925,32.613941 Z" id="Fill-17" fill="#183D7B"></path>
                            <path d="M88.1968763,35.3643013 C87.4647261,35.3643013 87.0111242,35.1592489 86.8438653,35.0647083 C86.6927368,34.8912766 86.5891337,34.3239257 86.5891337,33.7879811 C86.6448867,33.6856157 86.8280596,33.6776838 86.8917154,33.7643996 C87.050855,34.2766554 87.5841349,35.0016812 88.2605321,35.0016812 C88.8496733,35.0016812 89.1201023,34.5997228 89.1201023,34.2056963 C89.1201023,33.5676007 88.5153719,33.1891167 88.0379533,32.9527652 C87.4647261,32.6690361 86.8358542,32.196333 86.8358542,31.4158906 C86.8280596,30.5254723 87.5283819,29.9108511 88.6824144,29.9108511 C88.9452653,29.9108511 89.2714472,29.9422574 89.5899429,30.036798 C89.6931129,30.0684188 89.7649964,30.0841755 89.8603719,30.0998251 C89.9242442,30.273364 90.0037057,30.6987967 90.0037057,31.2268093 C89.963975,31.3214571 89.7649964,31.3293891 89.6931129,31.2507124 C89.5582232,30.8485397 89.2156943,30.273364 88.6426836,30.273364 C88.1174148,30.273364 87.8309636,30.6121881 87.8309636,31.0063217 C87.8309636,31.3687274 88.1571455,31.6997268 88.5551027,31.9044576 L89.0803715,32.1803619 C89.5738124,32.4404022 90.2026843,32.8974557 90.2026843,33.7643996 C90.2026843,34.7339233 89.3987589,35.3643013 88.1968763,35.3643013" id="Fill-18" fill="#183D7B"></path>
                        </g>
                    </g>
                </g>
            </g>
        </g>
    </g>
</svg>